<svg xmlns="http://www.w3.org/2000/svg" width="260" height="100">
  <link xmlns="" type="text/css" rel="stylesheet" id="dark-mode-custom-link" />
  <link xmlns="" type="text/css" rel="stylesheet" id="dark-mode-general-link" />
  <style xmlns="" lang="en" type="text/css" id="dark-mode-custom-style" />
  <style xmlns="" lang="en" type="text/css" id="dark-mode-native-style" />
  <style xmlns="" lang="en" type="text/css" id="dark-mode-native-sheet" />
  <g fill="#FFF">
    <path d="M82.759 51.129c0 2.032-.385 3.651-1.157 4.855-.772 1.206-1.799 1.808-3.078 1.808-1.316 0-2.361-.602-3.133-1.808-.772-1.204-1.158-2.823-1.158-4.855 0-2.033.386-3.65 1.158-4.855.771-1.205 1.817-1.808 3.133-1.808 1.279 0 2.306.603 3.078 1.808.772 1.205 1.157 2.822 1.157 4.855m11.293 0c0-4.594-1.394-8.225-4.179-10.898-2.786-2.672-6.569-4.008-11.349-4.008-4.781 0-8.573 1.336-11.377 4.008-2.804 2.674-4.207 6.305-4.207 10.898s1.403 8.224 4.207 10.897c2.804 2.674 6.596 4.008 11.377 4.008 4.78 0 8.563-1.334 11.349-4.008 2.785-2.673 4.179-6.304 4.179-10.897M193.51 55.251c-1.221 1.242-1.834 2.73-1.834 4.459 0 1.732.613 3.221 1.834 4.461 1.227 1.246 2.723 1.863 4.492 1.863 1.768 0 3.264-.617 4.488-1.863 1.225-1.24 1.834-2.729 1.834-4.461 0-1.729-.609-3.217-1.834-4.459s-2.721-1.863-4.488-1.863c-1.77 0-3.266.621-4.492 1.863M116.92 36.505c-2.109 0-3.964.622-5.562 1.863-1.602 1.24-2.776 2.935-3.527 5.081v-6.437H95.689v7.565h2.825v13.101h-2.825v7.566h18.917v-7.566h-5.366l-.057-4.123c.15-1.92.933-3.481 2.345-4.688 1.413-1.204 3.283-1.805 5.618-1.805h.903V36.505h-1.129zM4.331 38.734C2.072 40.41.943 42.679.943 45.539c0 1.881.518 3.415 1.554 4.602 1.033 1.185 2.296 2.032 3.782 2.54s2.972.932 4.46 1.271c1.487.338 2.748.771 3.784 1.298 1.033.53 1.552 1.243 1.552 2.146 0 .791-.29 1.346-.874 1.664-.585.324-1.573.48-2.966.48-.676 0-1.393-.055-2.144-.166v-2.993H.942v8.298c4.027.904 7.979 1.355 11.857 1.355 4.593 0 8.103-.838 10.53-2.512 2.429-1.676 3.642-3.982 3.642-6.918 0-1.918-.528-3.527-1.58-4.828-1.055-1.296-2.343-2.248-3.868-2.85a48.62 48.62 0 0 0-4.573-1.554c-1.525-.432-2.815-.883-3.868-1.355-1.056-.469-1.582-1.062-1.582-1.777 0-1.207.849-1.807 2.542-1.807.94 0 2.145.264 3.612.79v2.993h8.188v-6.608c-3.99-2.256-8.169-3.386-12.536-3.386-3.725.001-6.717.838-8.975 2.512M49.502 51.129c0 2.032-.367 3.651-1.102 4.855-.733 1.206-1.722 1.808-2.963 1.808-1.207 0-2.167-.602-2.88-1.808-.716-1.204-1.072-2.823-1.072-4.855 0-2.033.356-3.65 1.072-4.855.714-1.205 1.673-1.807 2.88-1.807 1.241 0 2.229.602 2.963 1.807.735 1.205 1.102 2.822 1.102 4.855m11.294.057c0-4.594-1.028-8.236-3.079-10.928-2.052-2.69-4.846-4.035-8.386-4.035-4.29 0-7.378 2.051-9.26 6.155v-5.365H27.932v7.565h2.824v23.829h-2.824v7.566h17.505v-7.566h-3.953V62.14c1.957 2.594 4.609 3.895 7.959 3.895 3.465 0 6.221-1.334 8.273-4.008 2.052-2.674 3.08-6.288 3.08-10.841M158.25 55.138c0 1.279-.328 2.295-.986 3.049-.66.754-1.574 1.129-2.74 1.129-.98 0-1.75-.264-2.314-.793-.564-.523-.846-1.221-.846-2.086 0-.867.326-1.543.986-2.032.658-.49 1.57-.735 2.736-.735.906 0 1.959.188 3.164.565v.903zm13.383 10.107v-7.566h-2.824V46.441c0-3.16-1.168-5.656-3.5-7.481-2.336-1.824-5.646-2.737-9.939-2.737-4.668 0-8.959 1.13-12.873 3.387v6.607h9.262v-2.936c1.016-.188 1.881-.283 2.596-.283 2.596 0 3.896 1.129 3.896 3.387v2.881c-1.617-.301-3.428-.453-5.42-.453-3.766 0-6.711.782-8.838 2.343-2.127 1.564-3.189 3.699-3.189 6.408 0 2.563.867 4.613 2.598 6.156 1.729 1.543 4.084 2.316 7.059 2.316 4.326 0 7.357-1.6 9.09-4.799v4.008h12.082zM230.557 46.703h-.543c-2.393-.002-4.363.621-5.852 1.893-1.479 1.261-2.316 2.931-2.467 4.934l.057 4.509h5.363v6.846h-18.199v-6.846h2.824V44.221h-2.824v-6.852h11.426l-.004 8.18.699-1.98c.736-2.092 1.867-3.721 3.41-4.918 1.539-1.195 3.305-1.785 5.34-1.787h.77v9.839zm.718.717V36.146h-1.498c-2.172 0-4.113.648-5.77 1.938-1.227.95-2.211 2.158-2.949 3.609v-5.04h-12.859v8.285h2.824v12.384h-2.824v8.281h19.635v-8.281h-5.369l-.053-3.77c.146-1.807.875-3.258 2.217-4.409 1.336-1.137 3.111-1.719 5.385-1.723H231.275zM249.742 42.971l-.238-.087c-1.49-.534-2.73-.81-3.736-.81-.885.002-1.592.15-2.113.518-.523.365-.795.965-.787 1.646.002.919.695 1.623 1.795 2.105 1.076.483 2.379.938 3.916 1.373 1.512.43 3.025.946 4.539 1.541a8.968 8.968 0 0 1 3.723 2.745c.996 1.232 1.498 2.744 1.498 4.604-.006 2.834-1.143 4.994-3.482 6.621-2.34 1.613-5.779 2.449-10.33 2.447-3.76 0-7.592-.428-11.498-1.285v-7.651h8.428v2.94l.305.049c.771.115 1.502.172 2.201.172 1.42-.004 2.447-.15 3.137-.523.707-.375 1.072-1.107 1.063-1.98.008-1.055-.643-1.916-1.748-2.467-1.068-.542-2.359-.984-3.867-1.328a42.846 42.846 0 0 1-4.422-1.26 8.287 8.287 0 0 1-3.631-2.438c-.971-1.113-1.463-2.546-1.465-4.365.008-2.767 1.068-4.893 3.242-6.514 2.184-1.617 5.09-2.443 8.766-2.443 4.238 0 8.291 1.077 12.178 3.241v6.035h-7.473l-.001-2.886zm-.717 3.603h8.902v-7.173l-.18-.104c-4.041-2.287-8.285-3.434-12.713-3.434-3.779 0-6.855.85-9.191 2.582-2.342 1.728-3.541 4.138-3.535 7.092 0 1.947.541 3.58 1.645 4.838a9.003 9.003 0 0 0 3.938 2.646c1.496.513 2.996.941 4.494 1.281 1.463.331 2.701.758 3.701 1.269.963.505 1.348 1.075 1.357 1.825-.012.709-.23 1.086-.693 1.352-.475.268-1.426.438-2.789.436-.566 0-1.164-.039-1.787-.123v-3.038h-9.861v8.942l.279.066c4.039.906 8.004 1.363 11.9 1.363h.033c4.633 0 8.215-.842 10.734-2.576 2.518-1.725 3.807-4.178 3.797-7.211.004-1.984-.549-3.689-1.662-5.057a9.703 9.703 0 0 0-4.014-2.962 50.29 50.29 0 0 0-4.607-1.561c-1.514-.428-2.787-.877-3.818-1.34-1.006-.453-1.369-.939-1.369-1.449.029-.978.543-1.396 2.182-1.446.828 0 1.92.222 3.258.685v3.097zM126.179 29.784l-4.123 7.229h-3.161l.057 7.509h3.104l.059 11.69c.034 2.859 1.023 5.127 2.962 6.803 1.94 1.676 4.583 2.51 7.934 2.51h6.211V57.96h-2.992c-1.055 0-1.885-.299-2.486-.902s-.9-1.412-.9-2.43l-.059-10.106h5.816v-7.509h-5.816l-.057-7.229h-6.549zM173.045 24.025v7.567h2.82v26.087h-2.82v7.566h16.373v-7.566h-2.824V24.025z" />
  </g>
  <path fill="none" d="M0 0h260v100H0z" />
</svg>
